<svg width="684" height="267" viewBox="0 0 684 267" fill="none" xmlns="http://www.w3.org/2000/svg">
<g clip-path="url(#clip0_155_5961)">
<rect x="479.5" y="94.5" width="62" height="38" rx="5" fill="#B0FFD4"/>
<path d="M490.676 120.5L496.616 104.77H498.288L504.272 120.5H502.688L500.862 115.55H494.02L492.172 120.5H490.676ZM494.46 114.34H500.422L498.266 108.466L497.474 106.178H497.43C497.151 107.073 496.895 107.835 496.66 108.466L494.46 114.34ZM505.653 120.5V104.77H507.017V120.5H505.653ZM512.449 120.764C511.349 120.764 510.454 120.493 509.765 119.95C509.075 119.407 508.731 118.623 508.731 117.596C508.731 116.951 508.841 116.408 509.061 115.968C509.295 115.513 509.647 115.161 510.117 114.912C510.601 114.663 511.085 114.479 511.569 114.362C512.067 114.23 512.683 114.12 513.417 114.032C514.649 113.885 515.463 113.731 515.859 113.57C516.269 113.394 516.475 113.035 516.475 112.492V112.272C516.475 110.747 515.565 109.984 513.747 109.984C511.723 109.984 510.659 110.827 510.557 112.514H509.215C509.288 111.385 509.706 110.497 510.469 109.852C511.231 109.207 512.324 108.884 513.747 108.884C516.431 108.884 517.773 110.057 517.773 112.404V118.586C517.773 119.217 518.022 119.547 518.521 119.576C518.594 119.576 518.763 119.547 519.027 119.488H519.093V120.478C518.829 120.595 518.521 120.654 518.169 120.654C517.113 120.654 516.555 120.119 516.497 119.048V118.806H516.431C515.507 120.111 514.179 120.764 512.449 120.764ZM512.691 119.664C513.864 119.664 514.788 119.334 515.463 118.674C516.152 117.999 516.497 117.237 516.497 116.386V114.34C515.939 114.648 514.957 114.897 513.549 115.088C513.079 115.147 512.705 115.205 512.427 115.264C512.163 115.323 511.862 115.411 511.525 115.528C511.202 115.645 510.953 115.785 510.777 115.946C510.615 116.107 510.469 116.327 510.337 116.606C510.219 116.885 510.161 117.215 510.161 117.596C510.161 118.975 511.004 119.664 512.691 119.664ZM520.347 120.5V109.126H521.711V110.864H521.755C522.65 109.544 523.918 108.884 525.561 108.884C526.646 108.884 527.519 109.199 528.179 109.83C528.854 110.446 529.191 111.311 529.191 112.426V120.5H527.827V112.558C527.827 110.886 526.962 110.05 525.231 110.05C524.248 110.05 523.412 110.358 522.723 110.974C522.048 111.59 521.711 112.36 521.711 113.284V120.5H520.347Z" fill="black"/>
<path d="M464 88.2618V60.3912C464 58.6755 466.018 57.7562 467.313 58.8823L490.618 79.1594C492.053 80.408 491.099 82.7659 489.2 82.6655L476.24 81.9807C475.683 81.9513 475.139 82.1558 474.74 82.5449L467.395 89.6949C466.128 90.9288 464 90.0307 464 88.2618Z" fill="#B0FFD4" stroke="black"/>
<rect x="479.5" y="94.5" width="62" height="38" rx="5" fill="#B0FFD4"/>
<path d="M490.676 120.5L496.616 104.77H498.288L504.272 120.5H502.688L500.862 115.55H494.02L492.172 120.5H490.676ZM494.46 114.34H500.422L498.266 108.466L497.474 106.178H497.43C497.151 107.073 496.895 107.835 496.66 108.466L494.46 114.34ZM505.653 120.5V104.77H507.017V120.5H505.653ZM512.449 120.764C511.349 120.764 510.454 120.493 509.765 119.95C509.075 119.407 508.731 118.623 508.731 117.596C508.731 116.951 508.841 116.408 509.061 115.968C509.295 115.513 509.647 115.161 510.117 114.912C510.601 114.663 511.085 114.479 511.569 114.362C512.067 114.23 512.683 114.12 513.417 114.032C514.649 113.885 515.463 113.731 515.859 113.57C516.269 113.394 516.475 113.035 516.475 112.492V112.272C516.475 110.747 515.565 109.984 513.747 109.984C511.723 109.984 510.659 110.827 510.557 112.514H509.215C509.288 111.385 509.706 110.497 510.469 109.852C511.231 109.207 512.324 108.884 513.747 108.884C516.431 108.884 517.773 110.057 517.773 112.404V118.586C517.773 119.217 518.022 119.547 518.521 119.576C518.594 119.576 518.763 119.547 519.027 119.488H519.093V120.478C518.829 120.595 518.521 120.654 518.169 120.654C517.113 120.654 516.555 120.119 516.497 119.048V118.806H516.431C515.507 120.111 514.179 120.764 512.449 120.764ZM512.691 119.664C513.864 119.664 514.788 119.334 515.463 118.674C516.152 117.999 516.497 117.237 516.497 116.386V114.34C515.939 114.648 514.957 114.897 513.549 115.088C513.079 115.147 512.705 115.205 512.427 115.264C512.163 115.323 511.862 115.411 511.525 115.528C511.202 115.645 510.953 115.785 510.777 115.946C510.615 116.107 510.469 116.327 510.337 116.606C510.219 116.885 510.161 117.215 510.161 117.596C510.161 118.975 511.004 119.664 512.691 119.664ZM520.347 120.5V109.126H521.711V110.864H521.755C522.65 109.544 523.918 108.884 525.561 108.884C526.646 108.884 527.519 109.199 528.179 109.83C528.854 110.446 529.191 111.311 529.191 112.426V120.5H527.827V112.558C527.827 110.886 526.962 110.05 525.231 110.05C524.248 110.05 523.412 110.358 522.723 110.974C522.048 111.59 521.711 112.36 521.711 113.284V120.5H520.347Z" fill="black"/>
<path d="M464 88.2618V60.3912C464 58.6755 466.018 57.7562 467.313 58.8823L490.618 79.1594C492.053 80.408 491.099 82.7659 489.2 82.6655L476.24 81.9807C475.683 81.9513 475.139 82.1558 474.74 82.5449L467.395 89.6949C466.128 90.9288 464 90.0307 464 88.2618Z" fill="#B0FFD4" stroke="black"/>
<rect x="414.5" y="198.5" width="76" height="38" rx="5" fill="#FFB7B7"/>
<path d="M430.428 224.786C427.465 224.786 425.984 223.231 425.984 220.122V219.528H427.436V220.056C427.436 221.303 427.685 222.197 428.184 222.74C428.683 223.268 429.445 223.532 430.472 223.532C432.276 223.532 433.178 222.564 433.178 220.628V208.77H434.652V220.738C434.652 221.941 434.293 222.916 433.574 223.664C432.855 224.412 431.807 224.786 430.428 224.786ZM441.793 224.786C440.136 224.786 438.838 224.236 437.899 223.136C436.961 222.021 436.491 220.584 436.491 218.824C436.491 217.093 436.968 215.671 437.921 214.556C438.875 213.427 440.129 212.862 441.683 212.862C442.563 212.862 443.326 213.031 443.971 213.368C444.631 213.705 445.145 214.175 445.511 214.776C445.878 215.377 446.142 216.037 446.303 216.756C446.479 217.46 446.567 218.23 446.567 219.066H437.899C437.929 220.415 438.273 221.515 438.933 222.366C439.593 223.202 440.547 223.62 441.793 223.62C443.524 223.62 444.631 222.769 445.115 221.068H446.435C446.186 222.212 445.658 223.121 444.851 223.796C444.059 224.456 443.04 224.786 441.793 224.786ZM437.921 217.988H445.137C445.108 216.8 444.8 215.839 444.213 215.106C443.641 214.358 442.798 213.984 441.683 213.984C440.583 213.984 439.711 214.351 439.065 215.084C438.435 215.817 438.053 216.785 437.921 217.988ZM448.257 224.5V213.126H449.621V214.864H449.665C450.56 213.544 451.829 212.884 453.471 212.884C454.557 212.884 455.429 213.199 456.089 213.83C456.764 214.446 457.101 215.311 457.101 216.426V224.5H455.737V216.558C455.737 214.886 454.872 214.05 453.141 214.05C452.159 214.05 451.323 214.358 450.633 214.974C449.959 215.59 449.621 216.36 449.621 217.284V224.5H448.257ZM459.3 224.5V213.126H460.664V214.864H460.708C461.603 213.544 462.872 212.884 464.514 212.884C465.6 212.884 466.472 213.199 467.132 213.83C467.807 214.446 468.144 215.311 468.144 216.426V224.5H466.78V216.558C466.78 214.886 465.915 214.05 464.184 214.05C463.202 214.05 462.366 214.358 461.676 214.974C461.002 215.59 460.664 216.36 460.664 217.284V224.5H459.3ZM471.316 228.262C470.92 228.262 470.532 228.203 470.15 228.086V226.876H470.216C470.524 226.979 470.869 227.03 471.25 227.03C472.145 227.03 472.776 226.517 473.142 225.49L473.516 224.478L469.138 213.126H470.59L473.318 220.474L474.22 223.07H474.264C474.587 222.043 474.873 221.178 475.122 220.474L477.74 213.126H479.148L474.462 225.688C474.096 226.671 473.67 227.345 473.186 227.712C472.717 228.079 472.094 228.262 471.316 228.262Z" fill="black"/>
<path d="M399 192.262V164.391C399 162.675 401.018 161.756 402.313 162.882L425.618 183.159C427.053 184.408 426.099 186.766 424.2 186.665L411.24 185.981C410.683 185.951 410.139 186.156 409.74 186.545L402.395 193.695C401.128 194.929 399 194.031 399 192.262Z" fill="#FFB7B7" stroke="black"/>
<rect x="341.5" y="75.5" width="57" height="38" rx="5" fill="#9FE2FF"/>
<path d="M353.908 101.5V85.77H355.382V94.152L363.874 85.77H365.788L359.21 92.172L366.184 101.5H364.424L358.198 93.184L355.382 95.956V101.5H353.908ZM370.152 101.764C369.052 101.764 368.157 101.493 367.468 100.95C366.778 100.407 366.434 99.6227 366.434 98.596C366.434 97.9507 366.544 97.408 366.764 96.968C366.998 96.5133 367.35 96.1613 367.82 95.912C368.304 95.6627 368.788 95.4793 369.272 95.362C369.77 95.23 370.386 95.12 371.12 95.032C372.352 94.8853 373.166 94.7313 373.562 94.57C373.972 94.394 374.178 94.0347 374.178 93.492V93.272C374.178 91.7467 373.268 90.984 371.45 90.984C369.426 90.984 368.362 91.8273 368.26 93.514H366.918C366.991 92.3847 367.409 91.4973 368.172 90.852C368.934 90.2067 370.027 89.884 371.45 89.884C374.134 89.884 375.476 91.0573 375.476 93.404V99.586C375.476 100.217 375.725 100.547 376.224 100.576C376.297 100.576 376.466 100.547 376.73 100.488H376.796V101.478C376.532 101.595 376.224 101.654 375.872 101.654C374.816 101.654 374.258 101.119 374.2 100.048V99.806H374.134C373.21 101.111 371.882 101.764 370.152 101.764ZM370.394 100.664C371.567 100.664 372.491 100.334 373.166 99.674C373.855 98.9993 374.2 98.2367 374.2 97.386V95.34C373.642 95.648 372.66 95.8973 371.252 96.088C370.782 96.1467 370.408 96.2053 370.13 96.264C369.866 96.3227 369.565 96.4107 369.228 96.528C368.905 96.6453 368.656 96.7847 368.48 96.946C368.318 97.1073 368.172 97.3273 368.04 97.606C367.922 97.8847 367.864 98.2147 367.864 98.596C367.864 99.9747 368.707 100.664 370.394 100.664ZM378.05 101.5V90.126H379.414V92.238H379.458C380.236 90.7713 381.394 90.038 382.934 90.038C383.066 90.038 383.191 90.0527 383.308 90.082V91.424C382.414 91.2773 381.607 91.4607 380.888 91.974C379.906 92.7073 379.414 93.7267 379.414 95.032V101.5H378.05ZM384.884 101.5V85.77H386.248V101.5H384.884Z" fill="black"/>
<path d="M326 69.2618V41.3912C326 39.6755 328.018 38.7562 329.313 39.8823L352.618 60.1594C354.053 61.408 353.099 63.7659 351.2 63.6655L338.24 62.9807C337.683 62.9513 337.139 63.1558 336.74 63.5449L329.395 70.6949C328.128 71.9288 326 71.0307 326 69.2618Z" fill="#9FE2FF" stroke="black"/>
<rect x="204.706" y="150.412" width="40.1176" height="24.5882" rx="3.23529" fill="#B0FFD4" fill-opacity="0.7"/>
<path d="M214.48 167.206V157.882H211.035V157.028H218.864V157.882H215.433V167.206H214.48ZM219.846 167.206V157.028H220.729V160.971H220.757C221.336 160.117 222.157 159.69 223.22 159.69C223.922 159.69 224.487 159.894 224.914 160.302C225.351 160.701 225.569 161.26 225.569 161.982V167.206H224.686V162.067C224.686 160.985 224.126 160.444 223.007 160.444C222.371 160.444 221.83 160.644 221.384 161.042C220.947 161.441 220.729 161.939 220.729 162.537V167.206H219.846ZM230.023 166.651C230.811 166.651 231.423 166.357 231.859 165.768C232.296 165.18 232.514 164.435 232.514 163.533C232.514 162.632 232.296 161.887 231.859 161.298C231.423 160.71 230.811 160.416 230.023 160.416C229.226 160.416 228.609 160.71 228.172 161.298C227.736 161.887 227.518 162.632 227.518 163.533C227.518 164.435 227.736 165.18 228.172 165.768C228.609 166.357 229.226 166.651 230.023 166.651ZM230.023 167.391C228.979 167.391 228.149 167.03 227.532 166.309C226.915 165.578 226.606 164.653 226.606 163.533C226.606 162.414 226.915 161.493 227.532 160.772C228.149 160.041 228.979 159.676 230.023 159.676C231.057 159.676 231.878 160.041 232.486 160.772C233.103 161.493 233.411 162.414 233.411 163.533C233.411 164.653 233.103 165.578 232.486 166.309C231.878 167.03 231.057 167.391 230.023 167.391ZM234.526 167.206V159.846H235.408V161.213H235.437C235.94 160.264 236.689 159.789 237.686 159.789C237.771 159.789 237.852 159.799 237.928 159.818V160.686C237.349 160.591 236.827 160.71 236.362 161.042C235.726 161.517 235.408 162.176 235.408 163.021V167.206H234.526Z" fill="black"/>
<path d="M194.676 146.375V128.341C194.676 127.231 195.982 126.636 196.82 127.365L211.9 140.486C212.828 141.293 212.211 142.819 210.982 142.754L202.597 142.311C202.236 142.292 201.884 142.424 201.626 142.676L196.873 147.303C196.053 148.101 194.676 147.52 194.676 146.375Z" fill="#B0FFD4" fill-opacity="0.7" stroke="black" stroke-width="0.647059"/>
<g opacity="0.21">
<rect x="521.621" y="179.366" width="26.451" height="17.634" rx="2.32026" fill="#9FE2FF"/>
<path d="M527 191.183V183.883H527.684V187.773L531.625 183.883H532.513L529.46 186.854L532.697 191.183H531.88L528.991 187.324L527.684 188.61V191.183H527ZM534.538 191.305C534.028 191.305 533.612 191.179 533.292 190.928C532.973 190.676 532.813 190.312 532.813 189.835C532.813 189.536 532.864 189.284 532.966 189.08C533.075 188.869 533.238 188.705 533.456 188.59C533.68 188.474 533.905 188.389 534.13 188.335C534.361 188.273 534.647 188.222 534.987 188.181C535.559 188.113 535.937 188.042 536.12 187.967C536.311 187.885 536.406 187.719 536.406 187.467V187.365C536.406 186.657 535.984 186.303 535.14 186.303C534.201 186.303 533.708 186.694 533.66 187.477H533.037C533.071 186.953 533.265 186.541 533.619 186.242C533.973 185.942 534.48 185.792 535.14 185.792C536.386 185.792 537.009 186.337 537.009 187.426V190.295C537.009 190.587 537.124 190.74 537.356 190.754C537.39 190.754 537.468 190.74 537.591 190.713H537.621V191.173C537.499 191.227 537.356 191.254 537.192 191.254C536.702 191.254 536.444 191.006 536.416 190.509V190.397H536.386C535.957 191.002 535.341 191.305 534.538 191.305ZM534.65 190.795C535.195 190.795 535.624 190.642 535.937 190.336C536.257 190.022 536.416 189.669 536.416 189.274V188.324C536.158 188.467 535.702 188.583 535.048 188.671C534.831 188.699 534.657 188.726 534.528 188.753C534.405 188.78 534.266 188.821 534.109 188.876C533.959 188.93 533.844 188.995 533.762 189.07C533.687 189.144 533.619 189.247 533.558 189.376C533.503 189.505 533.476 189.658 533.476 189.835C533.476 190.475 533.868 190.795 534.65 190.795ZM538.203 191.183V185.905H538.836V186.885H538.857C539.217 186.204 539.755 185.864 540.47 185.864C540.531 185.864 540.589 185.871 540.643 185.884V186.507C540.228 186.439 539.854 186.524 539.52 186.762C539.064 187.103 538.836 187.576 538.836 188.181V191.183H538.203ZM541.374 191.183V183.883H542.007V191.183H541.374Z" fill="black"/>
<path d="M514.428 176.471V163.538C514.428 162.742 515.365 162.315 515.966 162.838L526.78 172.247C527.446 172.827 527.004 173.921 526.122 173.874L520.108 173.556C519.85 173.543 519.597 173.638 519.412 173.818L516.004 177.136C515.416 177.709 514.428 177.292 514.428 176.471Z" fill="#9FE2FF" stroke="black" stroke-width="0.464052"/>
</g>
<g opacity="0.23">
<rect x="255.131" y="104.379" width="39.2418" height="19.6209" rx="2.5817" fill="#FFB7B7"/>
<path d="M263.296 117.837C261.767 117.837 261.002 117.035 261.002 115.429V115.122H261.752V115.395C261.752 116.039 261.88 116.501 262.138 116.781C262.395 117.054 262.789 117.19 263.319 117.19C264.251 117.19 264.716 116.69 264.716 115.69V109.568H265.477V115.747C265.477 116.368 265.292 116.872 264.921 117.258C264.55 117.644 264.008 117.837 263.296 117.837ZM269.165 117.837C268.309 117.837 267.639 117.553 267.154 116.985C266.67 116.41 266.427 115.668 266.427 114.759C266.427 113.865 266.673 113.131 267.166 112.555C267.658 111.972 268.305 111.681 269.108 111.681C269.562 111.681 269.956 111.768 270.289 111.942C270.63 112.116 270.895 112.358 271.085 112.669C271.274 112.979 271.41 113.32 271.494 113.691C271.584 114.055 271.63 114.452 271.63 114.884H267.154C267.169 115.581 267.347 116.149 267.688 116.588C268.029 117.019 268.521 117.235 269.165 117.235C270.059 117.235 270.63 116.796 270.88 115.918H271.562C271.433 116.508 271.16 116.978 270.744 117.326C270.335 117.667 269.809 117.837 269.165 117.837ZM267.166 114.327H270.892C270.876 113.714 270.717 113.218 270.414 112.839C270.119 112.453 269.684 112.26 269.108 112.26C268.54 112.26 268.09 112.449 267.756 112.828C267.431 113.206 267.234 113.706 267.166 114.327ZM272.502 117.69V111.817H273.207V112.714H273.229C273.691 112.033 274.346 111.692 275.195 111.692C275.755 111.692 276.206 111.855 276.546 112.18C276.895 112.498 277.069 112.945 277.069 113.521V117.69H276.365V113.589C276.365 112.726 275.918 112.294 275.024 112.294C274.517 112.294 274.085 112.453 273.729 112.771C273.381 113.089 273.207 113.487 273.207 113.964V117.69H272.502ZM278.204 117.69V111.817H278.909V112.714H278.931C279.393 112.033 280.048 111.692 280.897 111.692C281.457 111.692 281.908 111.855 282.248 112.18C282.597 112.498 282.771 112.945 282.771 113.521V117.69H282.067V113.589C282.067 112.726 281.62 112.294 280.726 112.294C280.219 112.294 279.787 112.453 279.431 112.771C279.083 113.089 278.909 113.487 278.909 113.964V117.69H278.204ZM284.409 119.632C284.204 119.632 284.004 119.602 283.807 119.541V118.917H283.841C284 118.97 284.178 118.996 284.375 118.996C284.837 118.996 285.162 118.731 285.352 118.201L285.545 117.678L283.284 111.817H284.034L285.442 115.611L285.908 116.951H285.931C286.098 116.421 286.245 115.974 286.374 115.611L287.726 111.817H288.453L286.033 118.303C285.844 118.81 285.624 119.159 285.374 119.348C285.132 119.538 284.81 119.632 284.409 119.632Z" fill="black"/>
<path d="M247.127 101.158V86.7673C247.127 85.8815 248.17 85.4068 248.838 85.9883L260.871 96.4581C261.612 97.1028 261.12 98.3203 260.139 98.2685L253.448 97.9149C253.16 97.8997 252.879 98.0053 252.673 98.2062L248.88 101.898C248.226 102.535 247.127 102.071 247.127 101.158Z" fill="#FFB7B7" stroke="black" stroke-width="0.51634"/>
</g>
<path d="M874 73H115V100.481C115 107.38 122.662 112.973 132.114 112.973H874V73Z" fill="white" fill-opacity="0.024"/>
<path d="M873.666 73.3337H115.334V100.481C115.334 103.798 117.175 106.83 120.209 109.045C123.243 111.259 127.451 112.639 132.114 112.639H873.666V73.3337Z" stroke="white" stroke-opacity="0.15" stroke-width="0.667418"/>
<path d="M874 148H115V175.481C115 182.38 122.662 187.973 132.114 187.973H874V148Z" fill="white" fill-opacity="0.024"/>
<path d="M873.666 148.334H115.334V175.481C115.334 178.798 117.175 181.83 120.209 184.045C123.243 186.259 127.451 187.639 132.114 187.639H873.666V148.334Z" stroke="white" stroke-opacity="0.15" stroke-width="0.667418"/>
<path d="M874 221H115V248.481C115 255.38 122.662 260.973 132.114 260.973H874V221Z" fill="white" fill-opacity="0.024"/>
<path d="M873.666 221.334H115.334V248.481C115.334 251.798 117.175 254.83 120.209 257.045C123.243 259.259 127.451 260.639 132.114 260.639H873.666V221.334Z" stroke="white" stroke-opacity="0.15" stroke-width="0.667418"/>
</g>
<defs>
<clipPath id="clip0_155_5961">
<rect width="684" height="267" fill="white"/>
</clipPath>
</defs>
</svg>
