<svg width="594" height="279" viewBox="0 0 594 279" fill="none" xmlns="http://www.w3.org/2000/svg">
<mask id="mask0_96_339" style="mask-type:alpha" maskUnits="userSpaceOnUse" x="80" y="57" width="434" height="164">
<ellipse opacity="0.55" cx="297" cy="139" rx="216.5" ry="82" fill="#010314"/>
</mask>
<g mask="url(#mask0_96_339)">
<g opacity="0.18">
<path d="M102.9 23H64.1001V61.8H102.9V23Z" stroke="white"/>
<path d="M141.7 23H102.9V61.8H141.7V23Z" stroke="white"/>
<path d="M180.5 23H141.7V61.8H180.5V23Z" stroke="white"/>
<path d="M219.3 23H180.5V61.8H219.3V23Z" stroke="white"/>
<path d="M258.1 23H219.3V61.8H258.1V23Z" stroke="white"/>
<path d="M296.9 23H258.1V61.8H296.9V23Z" stroke="white"/>
<path d="M335.7 23H296.9V61.8H335.7V23Z" stroke="white"/>
<path d="M374.5 23H335.7V61.8H374.5V23Z" stroke="white"/>
<path d="M413.3 23H374.5V61.8H413.3V23Z" stroke="white"/>
<path d="M452.1 23H413.3V61.8H452.1V23Z" stroke="white"/>
<path d="M490.9 23H452.1V61.8H490.9V23Z" stroke="white"/>
<path d="M529.7 23H490.9V61.8H529.7V23Z" stroke="white"/>
<path d="M102.9 61.8H64.1001V100.6H102.9V61.8Z" stroke="white"/>
<path d="M141.7 61.8H102.9V100.6H141.7V61.8Z" stroke="white"/>
<path d="M180.5 61.8H141.7V100.6H180.5V61.8Z" stroke="white"/>
<path d="M219.3 61.8H180.5V100.6H219.3V61.8Z" stroke="white"/>
<path d="M258.1 61.8H219.3V100.6H258.1V61.8Z" stroke="white"/>
<path d="M296.9 61.8H258.1V100.6H296.9V61.8Z" stroke="white"/>
<path d="M335.7 61.8H296.9V100.6H335.7V61.8Z" stroke="white"/>
<path d="M374.5 61.8H335.7V100.6H374.5V61.8Z" stroke="white"/>
<path d="M413.3 61.8H374.5V100.6H413.3V61.8Z" stroke="white"/>
<path d="M452.1 61.8H413.3V100.6H452.1V61.8Z" stroke="white"/>
<path d="M490.9 61.8H452.1V100.6H490.9V61.8Z" stroke="white"/>
<path d="M529.7 61.8H490.9V100.6H529.7V61.8Z" stroke="white"/>
<path d="M102.9 100.6H64.1001V139.4H102.9V100.6Z" stroke="white"/>
<path d="M141.7 100.6H102.9V139.4H141.7V100.6Z" stroke="white"/>
<path d="M180.5 100.6H141.7V139.4H180.5V100.6Z" stroke="white"/>
<path d="M219.3 100.6H180.5V139.4H219.3V100.6Z" stroke="white"/>
<path d="M258.1 100.6H219.3V139.4H258.1V100.6Z" stroke="white"/>
<path d="M296.9 100.6H258.1V139.4H296.9V100.6Z" stroke="white"/>
<path d="M335.7 100.6H296.9V139.4H335.7V100.6Z" stroke="white"/>
<path d="M374.5 100.6H335.7V139.4H374.5V100.6Z" stroke="white"/>
<path d="M413.3 100.6H374.5V139.4H413.3V100.6Z" stroke="white"/>
<path d="M452.1 100.6H413.3V139.4H452.1V100.6Z" stroke="white"/>
<path d="M490.9 100.6H452.1V139.4H490.9V100.6Z" stroke="white"/>
<path d="M529.7 100.6H490.9V139.4H529.7V100.6Z" stroke="white"/>
<path d="M102.9 139.4H64.1001V178.2H102.9V139.4Z" stroke="white"/>
<path d="M141.7 139.4H102.9V178.2H141.7V139.4Z" stroke="white"/>
<path d="M180.5 139.4H141.7V178.2H180.5V139.4Z" stroke="white"/>
<path d="M219.3 139.4H180.5V178.2H219.3V139.4Z" stroke="white"/>
<path d="M258.1 139.4H219.3V178.2H258.1V139.4Z" stroke="white"/>
<path d="M296.9 139.4H258.1V178.2H296.9V139.4Z" stroke="white"/>
<path d="M335.7 139.4H296.9V178.2H335.7V139.4Z" stroke="white"/>
<path d="M374.5 139.4H335.7V178.2H374.5V139.4Z" stroke="white"/>
<path d="M413.3 139.4H374.5V178.2H413.3V139.4Z" stroke="white"/>
<path d="M452.1 139.4H413.3V178.2H452.1V139.4Z" stroke="white"/>
<path d="M490.9 139.4H452.1V178.2H490.9V139.4Z" stroke="white"/>
<path d="M529.7 139.4H490.9V178.2H529.7V139.4Z" stroke="white"/>
<path d="M102.9 178.2H64.1001V217H102.9V178.2Z" stroke="white"/>
<path d="M141.7 178.2H102.9V217H141.7V178.2Z" stroke="white"/>
<path d="M180.5 178.2H141.7V217H180.5V178.2Z" stroke="white"/>
<path d="M219.3 178.2H180.5V217H219.3V178.2Z" stroke="white"/>
<path d="M258.1 178.2H219.3V217H258.1V178.2Z" stroke="white"/>
<path d="M296.9 178.2H258.1V217H296.9V178.2Z" stroke="white"/>
<path d="M335.7 178.2H296.9V217H335.7V178.2Z" stroke="white"/>
<path d="M374.5 178.2H335.7V217H374.5V178.2Z" stroke="white"/>
<path d="M413.3 178.2H374.5V217H413.3V178.2Z" stroke="white"/>
<path d="M452.1 178.2H413.3V217H452.1V178.2Z" stroke="white"/>
<path d="M490.9 178.2H452.1V217H490.9V178.2Z" stroke="white"/>
<path d="M529.7 178.2H490.9V217H529.7V178.2Z" stroke="white"/>
<path d="M102.9 217H64.1001V255.8H102.9V217Z" stroke="white"/>
<path d="M141.7 217H102.9V255.8H141.7V217Z" stroke="white"/>
<path d="M180.5 217H141.7V255.8H180.5V217Z" stroke="white"/>
<path d="M219.3 217H180.5V255.8H219.3V217Z" stroke="white"/>
<path d="M258.1 217H219.3V255.8H258.1V217Z" stroke="white"/>
<path d="M296.9 217H258.1V255.8H296.9V217Z" stroke="white"/>
<path d="M335.7 217H296.9V255.8H335.7V217Z" stroke="white"/>
<path d="M374.5 217H335.7V255.8H374.5V217Z" stroke="white"/>
<path d="M413.3 217H374.5V255.8H413.3V217Z" stroke="white"/>
<path d="M452.1 217H413.3V255.8H452.1V217Z" stroke="white"/>
<path d="M490.9 217H452.1V255.8H490.9V217Z" stroke="white"/>
<path d="M529.7 217H490.9V255.8H529.7V217Z" stroke="white"/>
</g>
</g>
</svg>
