<svg width="811" height="592" viewBox="0 0 811 592" fill="none" xmlns="http://www.w3.org/2000/svg">
<mask id="path-1-inside-1_125_554" fill="white">
<path fill-rule="evenodd" clip-rule="evenodd" d="M752.484 549.285L752.484 0H811L811 549.285L811 578.652C811 585.563 803.804 591.247 794.583 591.931C793.968 591.977 793.345 592 792.714 592H752.484H0V549.285H752.484Z"/>
</mask>
<path fill-rule="evenodd" clip-rule="evenodd" d="M752.484 549.285L752.484 0H811L811 549.285L811 578.652C811 585.563 803.804 591.247 794.583 591.931C793.968 591.977 793.345 592 792.714 592H752.484H0V549.285H752.484Z" fill="white" fill-opacity="0.024"/>
<path d="M752.484 0V-0.667418H751.816L751.816 7.41618e-08L752.484 0ZM752.484 549.285V549.953H753.151L753.151 549.285L752.484 549.285ZM811 0L811.667 -1.48324e-07L811.667 -0.667418H811V0ZM811 549.285L811.667 549.285L811.667 549.285L811 549.285ZM811 578.652L810.332 578.652V578.652H811ZM794.583 591.931L794.534 591.265L794.534 591.266L794.583 591.931ZM0 592H-0.667418V592.667H0V592ZM0 549.285V548.618H-0.667418V549.285H0ZM751.816 7.41618e-08L751.816 549.285L753.151 549.285L753.151 -7.41618e-08L751.816 7.41618e-08ZM811 -0.667418H752.484V0.667418H811V-0.667418ZM811.667 549.285L811.667 -1.48324e-07L810.332 1.48324e-07L810.333 549.285L811.667 549.285ZM810.333 549.285L810.332 578.652L811.667 578.652L811.667 549.285L810.333 549.285ZM794.633 592.597C799.361 592.246 803.598 590.612 806.667 588.147C809.738 585.681 811.667 582.355 811.667 578.652H810.332C810.332 581.86 808.664 584.831 805.831 587.106C802.998 589.382 799.026 590.932 794.534 591.265L794.633 592.597ZM792.714 592.667C793.361 592.667 794.001 592.643 794.633 592.597L794.534 591.266C793.936 591.31 793.328 591.333 792.714 591.333V592.667ZM792.714 591.333H752.484V592.667H792.714V591.333ZM752.484 591.333H0V592.667H752.484V591.333ZM0.667418 592V549.285H-0.667418V592H0.667418ZM0 549.953H752.484V548.618H0V549.953Z" fill="white" fill-opacity="0.15" mask="url(#path-1-inside-1_125_554)"/>
<mask id="path-3-inside-2_125_554" fill="white">
<path fill-rule="evenodd" clip-rule="evenodd" d="M752.484 510.891L752.484 549.285H0V510.272H695.021L695.021 0H752.484V510.272L752.484 510.891Z"/>
</mask>
<path fill-rule="evenodd" clip-rule="evenodd" d="M752.484 510.891L752.484 549.285H0V510.272H695.021L695.021 0H752.484V510.272L752.484 510.891Z" fill="#263CB5" fill-opacity="0.03"/>
<path d="M752.484 510.891L753.151 510.891L753.151 510.891L752.484 510.891ZM752.484 549.285V549.953H753.151L753.151 549.285L752.484 549.285ZM0 549.285H-0.667418V549.953H0V549.285ZM0 510.272V509.604H-0.667418V510.272H0ZM695.021 510.272V510.939H695.689L695.689 510.272L695.021 510.272ZM695.021 0V-0.667418H694.354L694.354 7.98319e-08L695.021 0ZM752.484 0H753.151V-0.667418H752.484V0ZM752.484 510.272L751.816 510.272L751.816 510.272L752.484 510.272ZM751.816 510.891L751.816 549.285L753.151 549.285L753.151 510.891L751.816 510.891ZM752.484 548.618H0V549.953H752.484V548.618ZM0.667418 549.285V510.272H-0.667418V549.285H0.667418ZM0 510.939H695.021V509.604H0V510.939ZM695.689 510.272L695.689 -7.98319e-08L694.354 7.98319e-08L694.354 510.272L695.689 510.272ZM695.021 0.667418H752.484V-0.667418H695.021V0.667418ZM751.816 0V510.272H753.151V0H751.816ZM751.816 510.272L751.816 510.891L753.151 510.891L753.151 510.272L751.816 510.272Z" fill="#263CB5" mask="url(#path-3-inside-2_125_554)"/>
<mask id="path-5-inside-3_125_554" fill="white">
<path fill-rule="evenodd" clip-rule="evenodd" d="M694.882 474.887L694.882 510.575H0V474.311H641.818V1.58515e-06L694.882 0L694.882 474.311L694.882 474.887Z"/>
</mask>
<path fill-rule="evenodd" clip-rule="evenodd" d="M694.882 474.887L694.882 510.575H0V474.311H641.818V1.58515e-06L694.882 0L694.882 474.311L694.882 474.887Z" fill="white" fill-opacity="0.024"/>
<path d="M694.882 474.887L695.549 474.887L695.549 474.886L694.882 474.887ZM694.882 510.575V511.242H695.549L695.549 510.575L694.882 510.575ZM0 510.575H-0.667418V511.242H0V510.575ZM0 474.311V473.644H-0.667418V474.311H0ZM641.818 474.311V474.978H642.485V474.311H641.818ZM641.818 1.58515e-06L641.818 -0.667417L641.151 -0.667417V1.58515e-06H641.818ZM694.882 0L695.549 8.58845e-08L695.549 -0.667418L694.882 -0.667418L694.882 0ZM694.882 474.311L694.214 474.311L694.214 474.311L694.882 474.311ZM694.214 474.887L694.214 510.575L695.549 510.575L695.549 474.887L694.214 474.887ZM694.882 509.908H0V511.242H694.882V509.908ZM0.667418 510.575V474.311H-0.667418V510.575H0.667418ZM0 474.978H641.818V473.644H0V474.978ZM642.485 474.311V1.58515e-06H641.151V474.311H642.485ZM641.818 0.66742L694.882 0.667418L694.882 -0.667418L641.818 -0.667417L641.818 0.66742ZM694.214 -8.58845e-08L694.214 474.311L695.549 474.311L695.549 8.58845e-08L694.214 -8.58845e-08ZM694.214 474.311L694.214 474.887L695.549 474.886L695.549 474.311L694.214 474.311Z" fill="white" fill-opacity="0.15" mask="url(#path-5-inside-3_125_554)"/>
<g filter="url(#filter0_bddi_125_554)">
<rect x="331" y="454" width="44.649" height="44.6503" rx="22.3239" fill="white" fill-opacity="0.1" shape-rendering="crispEdges"/>
<path d="M342.571 464.376L344.457 485.672L353.325 488.272L362.246 485.674L364.078 464.376H342.571ZM359.357 471.602H349.83L350.035 474.011H359.232L358.484 481.855L353.411 483.505L348.296 481.767L347.952 478.263H350.37L350.561 479.949L353.429 480.923L356.232 480.011L356.587 476.421H347.848L347.176 469.192H359.617L359.357 471.602Z" fill="white"/>
</g>
<g filter="url(#filter1_bddi_125_554)">
<rect x="545" y="491" width="44.649" height="44.6503" rx="22.3239" fill="white" fill-opacity="0.1" shape-rendering="crispEdges"/>
<path d="M570.22 509.191H570.29L570.255 509.156L572.696 506.714V506.662C570.638 504.848 567.796 504.22 565.162 505.005C562.529 505.79 560.505 507.883 559.773 510.534C559.808 510.516 559.86 510.499 559.912 510.499C560.819 509.906 561.901 509.557 563.034 509.557C563.418 509.557 563.784 509.592 564.151 509.662C564.168 509.644 564.185 509.644 564.203 509.644C565.773 507.918 568.423 507.708 570.237 509.191H570.22Z" fill="white"/>
<path d="M575.017 510.499C574.616 509.016 573.778 507.673 572.61 506.644L570.116 509.121C571.162 509.976 571.773 511.266 571.738 512.609V513.045C574.685 513.045 574.685 517.44 571.738 517.44H567.308V520.928H567.291L567.308 520.963H571.738C574.284 520.981 576.534 519.341 577.284 516.934C578.034 514.528 577.11 511.911 575.017 510.499Z" fill="white"/>
<path d="M562.965 520.981H567.552V517.458H562.965C562.633 517.458 562.32 517.388 562.023 517.266L559.372 519.812V519.847C560.419 520.597 561.674 520.998 562.982 520.998L562.965 520.981Z" fill="white"/>
<path d="M563.174 509.47C560.575 509.487 558.273 511.092 557.436 513.446C556.599 515.818 557.436 518.417 559.494 519.952L562.215 517.353C560.715 516.708 560.366 514.824 561.517 513.725C562.668 512.609 564.622 512.958 565.302 514.388L568.023 511.789C566.872 510.342 565.075 509.487 563.174 509.505V509.47Z" fill="white"/>
</g>
<g filter="url(#filter2_bddi_125_554)">
<rect x="673" y="317" width="44.6479" height="44.6479" rx="22.3239" fill="white" fill-opacity="0.1" shape-rendering="crispEdges"/>
<path d="M707.238 352.935L690.208 331H687V346.25H689.567V334.26L705.222 354.487C705.928 354.015 706.601 353.497 707.238 352.935Z" fill="url(#paint0_linear_125_554)"/>
<path d="M699.926 331H702.468V346.256H699.926V331Z" fill="url(#paint1_linear_125_554)"/>
</g>
<g filter="url(#filter3_bddi_125_554)">
<rect x="298" y="527" width="44.6478" height="44.6478" rx="22.3239" fill="white" fill-opacity="0.1" shape-rendering="crispEdges"/>
<g clip-path="url(#clip0_125_554)">
<path d="M327.325 545.914C327.094 545.835 326.86 545.761 326.625 545.693C326.665 545.532 326.701 545.373 326.733 545.216C327.263 542.646 326.917 540.576 325.735 539.894C324.601 539.24 322.747 539.922 320.875 541.551C320.69 541.712 320.51 541.877 320.334 542.047C320.216 541.934 320.096 541.824 319.974 541.715C318.012 539.973 316.045 539.239 314.864 539.922C313.731 540.578 313.396 542.524 313.873 544.96C313.92 545.201 313.974 545.441 314.033 545.68C313.755 545.759 313.486 545.843 313.229 545.933C310.929 546.735 309.459 547.992 309.459 549.296C309.459 550.642 311.037 551.993 313.433 552.812C313.627 552.878 313.823 552.939 314.02 552.996C313.956 553.253 313.899 553.511 313.85 553.771C313.395 556.165 313.75 558.065 314.88 558.717C316.046 559.39 318.004 558.698 319.91 557.032C320.065 556.896 320.216 556.757 320.364 556.614C320.555 556.798 320.751 556.976 320.951 557.15C322.798 558.739 324.622 559.38 325.75 558.727C326.916 558.052 327.295 556.011 326.803 553.527C326.764 553.332 326.721 553.139 326.672 552.946C326.81 552.905 326.945 552.863 327.076 552.82C329.567 551.995 331.188 550.66 331.188 549.296C331.188 547.987 329.672 546.722 327.325 545.914ZM326.785 551.939C326.666 551.978 326.544 552.016 326.42 552.053C326.145 551.182 325.774 550.257 325.319 549.3C325.753 548.367 326.11 547.453 326.377 546.588C326.599 546.652 326.815 546.72 327.023 546.791C329.034 547.484 330.26 548.507 330.26 549.296C330.26 550.136 328.935 551.226 326.785 551.939ZM325.892 553.707C326.11 554.805 326.141 555.799 325.997 556.575C325.867 557.273 325.607 557.738 325.285 557.924C324.6 558.32 323.136 557.805 321.557 556.446C321.37 556.285 321.188 556.119 321.01 555.948C321.623 555.278 322.235 554.5 322.832 553.635C323.882 553.542 324.875 553.39 325.775 553.182C325.819 553.36 325.858 553.536 325.892 553.707ZM316.867 557.855C316.198 558.092 315.665 558.098 315.343 557.913C314.658 557.517 314.373 555.991 314.762 553.944C314.808 553.703 314.861 553.462 314.92 553.223C315.81 553.42 316.795 553.562 317.848 553.647C318.45 554.493 319.079 555.271 319.714 555.951C319.579 556.082 319.441 556.209 319.3 556.333C318.457 557.07 317.612 557.592 316.867 557.855ZM313.733 551.934C312.674 551.571 311.799 551.101 311.199 550.587C310.66 550.126 310.388 549.667 310.388 549.296C310.388 548.504 311.567 547.495 313.535 546.809C313.773 546.726 314.023 546.648 314.283 546.574C314.555 547.458 314.911 548.383 315.342 549.318C314.906 550.267 314.544 551.207 314.269 552.102C314.089 552.05 313.91 551.994 313.733 551.934ZM314.784 544.782C314.375 542.695 314.647 541.121 315.329 540.726C316.056 540.305 317.663 540.905 319.358 542.409C319.468 542.507 319.577 542.608 319.684 542.71C319.052 543.388 318.429 544.16 317.833 545.001C316.811 545.095 315.832 545.248 314.933 545.451C314.878 545.229 314.828 545.006 314.784 544.782ZM324.157 547.096C323.944 546.729 323.724 546.367 323.496 546.01C324.189 546.097 324.853 546.214 325.477 546.356C325.29 546.956 325.056 547.584 324.782 548.227C324.581 547.846 324.372 547.469 324.157 547.096ZM320.334 543.374C320.762 543.837 321.191 544.355 321.613 544.917C320.757 544.877 319.9 544.877 319.045 544.917C319.467 544.36 319.899 543.843 320.334 543.374ZM316.488 547.103C316.274 547.472 316.07 547.847 315.874 548.226C315.604 547.585 315.373 546.955 315.184 546.346C315.804 546.207 316.465 546.094 317.154 546.008C316.923 546.368 316.701 546.733 316.488 547.103ZM317.173 552.65C316.462 552.57 315.791 552.463 315.171 552.328C315.363 551.708 315.599 551.064 315.875 550.409C316.072 550.789 316.277 551.164 316.491 551.534C316.711 551.914 316.939 552.286 317.173 552.65ZM320.36 555.283C319.92 554.809 319.481 554.283 319.053 553.719C319.469 553.735 319.893 553.743 320.324 553.743C320.767 553.743 321.205 553.733 321.635 553.714C321.212 554.289 320.785 554.815 320.36 555.283ZM324.79 550.376C325.081 551.038 325.326 551.678 325.52 552.287C324.89 552.431 324.21 552.547 323.493 552.633C323.723 552.269 323.945 551.9 324.16 551.527C324.379 551.148 324.589 550.764 324.79 550.376ZM323.356 551.063C323.027 551.635 322.679 552.196 322.314 552.745C321.651 552.792 320.988 552.816 320.324 552.815C319.648 552.815 318.99 552.794 318.357 552.753C317.981 552.205 317.627 551.643 317.294 551.069C316.963 550.497 316.654 549.913 316.367 549.318C316.653 548.723 316.962 548.138 317.292 547.566L317.292 547.566C317.621 546.994 317.973 546.435 318.345 545.889C318.991 545.84 319.654 545.815 320.324 545.815C320.997 545.815 321.66 545.84 322.306 545.89C322.675 546.434 323.024 546.992 323.353 547.561C323.684 548.132 323.996 548.714 324.29 549.305C323.999 549.902 323.688 550.488 323.356 551.063ZM325.271 540.698C325.999 541.117 326.282 542.81 325.824 545.029C325.795 545.171 325.763 545.315 325.727 545.461C324.825 545.253 323.846 545.098 322.821 545.002C322.224 544.152 321.606 543.379 320.985 542.709C321.147 542.553 321.314 542.4 321.484 542.251C323.089 540.855 324.588 540.304 325.271 540.698ZM320.324 547.355C321.395 547.355 322.264 548.224 322.264 549.296C322.264 550.367 321.395 551.236 320.324 551.236C319.252 551.236 318.384 550.367 318.384 549.296C318.384 548.224 319.252 547.355 320.324 547.355Z" fill="white"/>
</g>
</g>
<g filter="url(#filter4_bddi_125_554)">
<rect x="730" y="409" width="44.649" height="44.6503" rx="22.3239" fill="white" fill-opacity="0.1" shape-rendering="crispEdges"/>
<g clip-path="url(#clip1_125_554)">
<path d="M746.951 416.987H750.031V418.275H748.239V419.563H750.031V420.851H746.951V416.987ZM750.646 416.987H753.728V418.107H751.935V418.331H753.728V420.907H750.646V419.731H752.438V419.506H750.646V416.987ZM754.344 416.987H757.423V418.107H755.631V418.331H757.423V420.907H754.344V419.731H756.136V419.506H754.344V416.987Z" fill="white"/>
<path fill-rule="evenodd" clip-rule="evenodd" d="M752.314 445.662L744.018 443.358L741.572 422.622H763.078L760.634 443.356L752.314 445.662ZM746.407 432.009L746.635 434.551H755.449L755.154 437.849L752.318 438.616H752.315L749.484 437.851L749.302 435.824H746.749L747.105 439.817L752.314 441.263L757.532 439.817L758.168 432.691L758.23 432.009L758.689 426.86H745.95L746.181 429.404H755.902L755.67 432.009H746.407Z" fill="white"/>
</g>
</g>
<g filter="url(#filter5_bddi_125_554)">
<rect x="673" y="524" width="44.6479" height="44.6479" rx="22.3239" fill="white" fill-opacity="0.1" shape-rendering="crispEdges"/>
<path d="M689.751 544.253C689.751 544.573 689.777 544.829 689.841 545.046C689.905 545.199 689.994 545.404 690.109 545.634C690.16 545.685 690.173 545.762 690.173 545.826C690.173 545.915 690.122 545.992 690.007 546.081L689.47 546.439C689.393 546.49 689.317 546.516 689.253 546.516C689.163 546.516 689.086 546.465 688.997 546.388C688.882 546.26 688.78 546.132 688.69 545.992C688.614 545.851 688.524 545.685 688.435 545.493C687.77 546.273 686.939 546.669 685.929 546.669C685.214 546.669 684.651 546.465 684.229 546.056C683.82 545.647 683.603 545.097 683.603 544.407C683.603 543.704 683.859 543.129 684.37 542.668C684.894 542.234 685.584 542.004 686.453 542.004C686.747 542.004 687.016 542.029 687.361 542.08C687.655 542.119 688 542.183 688.332 542.259V541.646C688.332 540.994 688.205 540.572 687.936 540.278C687.655 540.01 687.208 539.895 686.556 539.895C686.249 539.895 685.942 539.933 685.635 539.997C685.316 540.074 685.009 540.163 684.715 540.291C684.575 540.342 684.459 540.38 684.421 540.393C684.357 540.419 684.319 540.419 684.281 540.419C684.166 540.419 684.102 540.342 684.102 540.163V539.741C684.102 539.614 684.114 539.511 684.166 539.447C684.204 539.383 684.281 539.332 684.396 539.294C684.702 539.115 685.047 538.987 685.469 538.885C685.903 538.772 686.35 538.716 686.799 538.719C687.808 538.719 688.55 538.949 689.023 539.409C689.496 539.869 689.726 540.572 689.726 541.505V544.253H689.751ZM686.3 545.557C686.581 545.557 686.862 545.506 687.169 545.404C687.476 545.301 687.744 545.11 687.974 544.854C688.115 544.688 688.217 544.509 688.294 544.304C688.294 544.1 688.358 543.857 688.358 543.563V543.218C688.102 543.129 687.847 543.129 687.565 543.065C687.302 543.036 687.038 543.019 686.773 543.014C686.198 543.014 685.789 543.129 685.508 543.359C685.226 543.589 685.099 543.908 685.099 544.33C685.099 544.739 685.188 545.046 685.405 545.238C685.61 545.455 685.904 545.557 686.3 545.557ZM693.126 546.465C693.002 546.468 692.879 546.442 692.768 546.388C692.729 546.324 692.665 546.209 692.614 546.056L690.62 539.486C690.569 539.294 690.544 539.205 690.544 539.141C690.544 539 690.608 538.923 690.748 538.923H691.579C691.745 538.923 691.86 538.949 691.911 539.013C691.988 539.064 692.039 539.179 692.09 539.345L693.509 544.969L694.838 539.345C694.877 539.179 694.928 539.064 695.004 539.013C695.068 538.962 695.183 538.923 695.324 538.923H696.027C696.18 538.923 696.295 538.949 696.359 539.013C696.423 539.064 696.487 539.179 696.525 539.345L697.88 545.046L699.337 539.345C699.389 539.179 699.453 539.064 699.504 539.013C699.58 538.962 699.683 538.923 699.836 538.923H700.628C700.769 538.923 700.846 539 700.846 539.141C700.846 539.179 700.833 539.23 700.82 539.294C700.82 539.294 700.795 539.396 700.769 539.486L698.711 546.056C698.66 546.235 698.609 546.324 698.519 546.388C698.468 546.439 698.353 546.477 698.213 546.477H697.484C697.318 546.477 697.241 546.452 697.139 546.388C697.053 546.297 696.999 546.18 696.986 546.056L695.669 540.572L694.353 546.043C694.314 546.209 694.263 546.324 694.199 546.388C694.094 546.445 693.974 546.472 693.854 546.465H693.126ZM704.054 546.695C703.632 546.695 703.159 546.644 702.737 546.541C702.316 546.439 701.983 546.324 701.766 546.209C701.655 546.156 701.562 546.071 701.498 545.966C701.463 545.894 701.445 545.816 701.446 545.736V545.301C701.446 545.123 701.51 545.046 701.638 545.046H701.792C701.843 545.046 701.919 545.11 702.009 545.148C702.29 545.276 702.61 545.378 702.942 545.442C703.287 545.506 703.632 545.544 703.952 545.544C704.489 545.544 704.91 545.455 705.192 545.263C705.486 545.046 705.639 544.803 705.639 544.458C705.639 544.215 705.549 544.023 705.409 543.857C705.255 543.704 704.961 543.55 704.552 543.423L703.313 543.039C702.699 542.835 702.239 542.553 701.958 542.17C701.683 541.815 701.535 541.379 701.536 540.93C701.536 540.572 701.613 540.265 701.766 539.997C701.919 539.716 702.124 539.486 702.354 539.294C702.635 539.102 702.916 538.962 703.261 538.859C703.594 538.757 703.952 538.706 704.335 538.706C704.514 538.706 704.706 538.719 704.91 538.744C705.089 538.77 705.268 538.808 705.447 538.834C705.626 538.885 705.779 538.923 705.933 538.974C706.086 539.026 706.189 539.077 706.291 539.128C706.406 539.192 706.495 539.256 706.546 539.332C706.598 539.409 706.623 539.499 706.623 539.614V540.023C706.623 540.202 706.559 540.291 706.431 540.291C706.367 540.291 706.252 540.253 706.099 540.189C705.626 539.971 705.076 539.856 704.476 539.856C703.99 539.856 703.632 539.933 703.338 540.099C703.083 540.253 702.942 540.508 702.942 540.853C702.942 541.096 703.031 541.301 703.198 541.454C703.364 541.62 703.683 541.774 704.131 541.927L705.345 542.311C705.958 542.489 706.393 542.771 706.661 543.129C706.917 543.474 707.045 543.87 707.045 544.317C707.045 544.675 706.968 545.007 706.828 545.301C706.674 545.583 706.47 545.838 706.189 546.043C705.946 546.26 705.626 546.413 705.268 546.529C704.91 546.644 704.476 546.695 704.054 546.695ZM705.652 550.836C702.852 552.894 698.788 553.993 695.324 553.993C690.403 553.993 685.993 552.178 682.657 549.174C682.389 548.931 682.632 548.612 682.951 548.804C686.556 550.887 690.991 552.152 695.592 552.152C698.698 552.152 702.111 551.513 705.243 550.159C705.716 549.967 706.112 550.491 705.652 550.836ZM706.828 549.519C706.457 549.047 704.45 549.289 703.543 549.392C703.274 549.43 703.236 549.187 703.479 549.008C705.076 547.896 707.71 548.241 708.004 548.586C708.31 548.97 707.927 551.603 706.431 552.855C706.189 553.047 705.971 552.945 706.073 552.715C706.419 551.846 707.173 549.954 706.828 549.519Z" fill="white"/>
</g>
<defs>
<filter id="filter0_bddi_125_554" x="327.512" y="450.512" width="51.6252" height="51.6265" filterUnits="userSpaceOnUse" color-interpolation-filters="sRGB">
<feFlood flood-opacity="0" result="BackgroundImageFix"/>
<feGaussianBlur in="BackgroundImageFix" stdDeviation="1.74406"/>
<feComposite in2="SourceAlpha" operator="in" result="effect1_backgroundBlur_125_554"/>
<feColorMatrix in="SourceAlpha" type="matrix" values="0 0 0 0 0 0 0 0 0 0 0 0 0 0 0 0 0 0 127 0" result="hardAlpha"/>
<feMorphology radius="0.697623" operator="dilate" in="SourceAlpha" result="effect2_dropShadow_125_554"/>
<feOffset/>
<feComposite in2="hardAlpha" operator="out"/>
<feColorMatrix type="matrix" values="0 0 0 0 1 0 0 0 0 1 0 0 0 0 1 0 0 0 0.1 0"/>
<feBlend mode="normal" in2="effect1_backgroundBlur_125_554" result="effect2_dropShadow_125_554"/>
<feColorMatrix in="SourceAlpha" type="matrix" values="0 0 0 0 0 0 0 0 0 0 0 0 0 0 0 0 0 0 127 0" result="hardAlpha"/>
<feMorphology radius="1.39525" operator="dilate" in="SourceAlpha" result="effect3_dropShadow_125_554"/>
<feOffset/>
<feComposite in2="hardAlpha" operator="out"/>
<feColorMatrix type="matrix" values="0 0 0 0 0 0 0 0 0 0 0 0 0 0 0 0 0 0 0.05 0"/>
<feBlend mode="normal" in2="effect2_dropShadow_125_554" result="effect3_dropShadow_125_554"/>
<feBlend mode="normal" in="SourceGraphic" in2="effect3_dropShadow_125_554" result="shape"/>
<feColorMatrix in="SourceAlpha" type="matrix" values="0 0 0 0 0 0 0 0 0 0 0 0 0 0 0 0 0 0 127 0" result="hardAlpha"/>
<feOffset dy="0.348812"/>
<feComposite in2="hardAlpha" operator="arithmetic" k2="-1" k3="1"/>
<feColorMatrix type="matrix" values="0 0 0 0 1 0 0 0 0 1 0 0 0 0 1 0 0 0 0.5 0"/>
<feBlend mode="normal" in2="shape" result="effect4_innerShadow_125_554"/>
</filter>
<filter id="filter1_bddi_125_554" x="541.512" y="487.512" width="51.6252" height="51.6265" filterUnits="userSpaceOnUse" color-interpolation-filters="sRGB">
<feFlood flood-opacity="0" result="BackgroundImageFix"/>
<feGaussianBlur in="BackgroundImageFix" stdDeviation="1.74406"/>
<feComposite in2="SourceAlpha" operator="in" result="effect1_backgroundBlur_125_554"/>
<feColorMatrix in="SourceAlpha" type="matrix" values="0 0 0 0 0 0 0 0 0 0 0 0 0 0 0 0 0 0 127 0" result="hardAlpha"/>
<feMorphology radius="0.697623" operator="dilate" in="SourceAlpha" result="effect2_dropShadow_125_554"/>
<feOffset/>
<feComposite in2="hardAlpha" operator="out"/>
<feColorMatrix type="matrix" values="0 0 0 0 1 0 0 0 0 1 0 0 0 0 1 0 0 0 0.1 0"/>
<feBlend mode="normal" in2="effect1_backgroundBlur_125_554" result="effect2_dropShadow_125_554"/>
<feColorMatrix in="SourceAlpha" type="matrix" values="0 0 0 0 0 0 0 0 0 0 0 0 0 0 0 0 0 0 127 0" result="hardAlpha"/>
<feMorphology radius="1.39525" operator="dilate" in="SourceAlpha" result="effect3_dropShadow_125_554"/>
<feOffset/>
<feComposite in2="hardAlpha" operator="out"/>
<feColorMatrix type="matrix" values="0 0 0 0 0 0 0 0 0 0 0 0 0 0 0 0 0 0 0.05 0"/>
<feBlend mode="normal" in2="effect2_dropShadow_125_554" result="effect3_dropShadow_125_554"/>
<feBlend mode="normal" in="SourceGraphic" in2="effect3_dropShadow_125_554" result="shape"/>
<feColorMatrix in="SourceAlpha" type="matrix" values="0 0 0 0 0 0 0 0 0 0 0 0 0 0 0 0 0 0 127 0" result="hardAlpha"/>
<feOffset dy="0.348812"/>
<feComposite in2="hardAlpha" operator="arithmetic" k2="-1" k3="1"/>
<feColorMatrix type="matrix" values="0 0 0 0 1 0 0 0 0 1 0 0 0 0 1 0 0 0 0.5 0"/>
<feBlend mode="normal" in2="shape" result="effect4_innerShadow_125_554"/>
</filter>
<filter id="filter2_bddi_125_554" x="669.512" y="313.512" width="51.6242" height="51.6241" filterUnits="userSpaceOnUse" color-interpolation-filters="sRGB">
<feFlood flood-opacity="0" result="BackgroundImageFix"/>
<feGaussianBlur in="BackgroundImageFix" stdDeviation="1.74406"/>
<feComposite in2="SourceAlpha" operator="in" result="effect1_backgroundBlur_125_554"/>
<feColorMatrix in="SourceAlpha" type="matrix" values="0 0 0 0 0 0 0 0 0 0 0 0 0 0 0 0 0 0 127 0" result="hardAlpha"/>
<feMorphology radius="0.697623" operator="dilate" in="SourceAlpha" result="effect2_dropShadow_125_554"/>
<feOffset/>
<feComposite in2="hardAlpha" operator="out"/>
<feColorMatrix type="matrix" values="0 0 0 0 1 0 0 0 0 1 0 0 0 0 1 0 0 0 0.1 0"/>
<feBlend mode="normal" in2="effect1_backgroundBlur_125_554" result="effect2_dropShadow_125_554"/>
<feColorMatrix in="SourceAlpha" type="matrix" values="0 0 0 0 0 0 0 0 0 0 0 0 0 0 0 0 0 0 127 0" result="hardAlpha"/>
<feMorphology radius="1.39525" operator="dilate" in="SourceAlpha" result="effect3_dropShadow_125_554"/>
<feOffset/>
<feComposite in2="hardAlpha" operator="out"/>
<feColorMatrix type="matrix" values="0 0 0 0 0 0 0 0 0 0 0 0 0 0 0 0 0 0 0.05 0"/>
<feBlend mode="normal" in2="effect2_dropShadow_125_554" result="effect3_dropShadow_125_554"/>
<feBlend mode="normal" in="SourceGraphic" in2="effect3_dropShadow_125_554" result="shape"/>
<feColorMatrix in="SourceAlpha" type="matrix" values="0 0 0 0 0 0 0 0 0 0 0 0 0 0 0 0 0 0 127 0" result="hardAlpha"/>
<feOffset dy="0.348812"/>
<feComposite in2="hardAlpha" operator="arithmetic" k2="-1" k3="1"/>
<feColorMatrix type="matrix" values="0 0 0 0 1 0 0 0 0 1 0 0 0 0 1 0 0 0 0.5 0"/>
<feBlend mode="normal" in2="shape" result="effect4_innerShadow_125_554"/>
</filter>
<filter id="filter3_bddi_125_554" x="294.512" y="523.512" width="51.6242" height="51.6241" filterUnits="userSpaceOnUse" color-interpolation-filters="sRGB">
<feFlood flood-opacity="0" result="BackgroundImageFix"/>
<feGaussianBlur in="BackgroundImageFix" stdDeviation="1.74406"/>
<feComposite in2="SourceAlpha" operator="in" result="effect1_backgroundBlur_125_554"/>
<feColorMatrix in="SourceAlpha" type="matrix" values="0 0 0 0 0 0 0 0 0 0 0 0 0 0 0 0 0 0 127 0" result="hardAlpha"/>
<feMorphology radius="0.697623" operator="dilate" in="SourceAlpha" result="effect2_dropShadow_125_554"/>
<feOffset/>
<feComposite in2="hardAlpha" operator="out"/>
<feColorMatrix type="matrix" values="0 0 0 0 1 0 0 0 0 1 0 0 0 0 1 0 0 0 0.1 0"/>
<feBlend mode="normal" in2="effect1_backgroundBlur_125_554" result="effect2_dropShadow_125_554"/>
<feColorMatrix in="SourceAlpha" type="matrix" values="0 0 0 0 0 0 0 0 0 0 0 0 0 0 0 0 0 0 127 0" result="hardAlpha"/>
<feMorphology radius="1.39525" operator="dilate" in="SourceAlpha" result="effect3_dropShadow_125_554"/>
<feOffset/>
<feComposite in2="hardAlpha" operator="out"/>
<feColorMatrix type="matrix" values="0 0 0 0 0 0 0 0 0 0 0 0 0 0 0 0 0 0 0.05 0"/>
<feBlend mode="normal" in2="effect2_dropShadow_125_554" result="effect3_dropShadow_125_554"/>
<feBlend mode="normal" in="SourceGraphic" in2="effect3_dropShadow_125_554" result="shape"/>
<feColorMatrix in="SourceAlpha" type="matrix" values="0 0 0 0 0 0 0 0 0 0 0 0 0 0 0 0 0 0 127 0" result="hardAlpha"/>
<feOffset dy="0.348812"/>
<feComposite in2="hardAlpha" operator="arithmetic" k2="-1" k3="1"/>
<feColorMatrix type="matrix" values="0 0 0 0 1 0 0 0 0 1 0 0 0 0 1 0 0 0 0.5 0"/>
<feBlend mode="normal" in2="shape" result="effect4_innerShadow_125_554"/>
</filter>
<filter id="filter4_bddi_125_554" x="726.512" y="405.512" width="51.6252" height="51.6265" filterUnits="userSpaceOnUse" color-interpolation-filters="sRGB">
<feFlood flood-opacity="0" result="BackgroundImageFix"/>
<feGaussianBlur in="BackgroundImageFix" stdDeviation="1.74406"/>
<feComposite in2="SourceAlpha" operator="in" result="effect1_backgroundBlur_125_554"/>
<feColorMatrix in="SourceAlpha" type="matrix" values="0 0 0 0 0 0 0 0 0 0 0 0 0 0 0 0 0 0 127 0" result="hardAlpha"/>
<feMorphology radius="0.697623" operator="dilate" in="SourceAlpha" result="effect2_dropShadow_125_554"/>
<feOffset/>
<feComposite in2="hardAlpha" operator="out"/>
<feColorMatrix type="matrix" values="0 0 0 0 1 0 0 0 0 1 0 0 0 0 1 0 0 0 0.1 0"/>
<feBlend mode="normal" in2="effect1_backgroundBlur_125_554" result="effect2_dropShadow_125_554"/>
<feColorMatrix in="SourceAlpha" type="matrix" values="0 0 0 0 0 0 0 0 0 0 0 0 0 0 0 0 0 0 127 0" result="hardAlpha"/>
<feMorphology radius="1.39525" operator="dilate" in="SourceAlpha" result="effect3_dropShadow_125_554"/>
<feOffset/>
<feComposite in2="hardAlpha" operator="out"/>
<feColorMatrix type="matrix" values="0 0 0 0 0 0 0 0 0 0 0 0 0 0 0 0 0 0 0.05 0"/>
<feBlend mode="normal" in2="effect2_dropShadow_125_554" result="effect3_dropShadow_125_554"/>
<feBlend mode="normal" in="SourceGraphic" in2="effect3_dropShadow_125_554" result="shape"/>
<feColorMatrix in="SourceAlpha" type="matrix" values="0 0 0 0 0 0 0 0 0 0 0 0 0 0 0 0 0 0 127 0" result="hardAlpha"/>
<feOffset dy="0.348812"/>
<feComposite in2="hardAlpha" operator="arithmetic" k2="-1" k3="1"/>
<feColorMatrix type="matrix" values="0 0 0 0 1 0 0 0 0 1 0 0 0 0 1 0 0 0 0.5 0"/>
<feBlend mode="normal" in2="shape" result="effect4_innerShadow_125_554"/>
</filter>
<filter id="filter5_bddi_125_554" x="669.512" y="520.512" width="51.6242" height="51.6241" filterUnits="userSpaceOnUse" color-interpolation-filters="sRGB">
<feFlood flood-opacity="0" result="BackgroundImageFix"/>
<feGaussianBlur in="BackgroundImageFix" stdDeviation="1.74406"/>
<feComposite in2="SourceAlpha" operator="in" result="effect1_backgroundBlur_125_554"/>
<feColorMatrix in="SourceAlpha" type="matrix" values="0 0 0 0 0 0 0 0 0 0 0 0 0 0 0 0 0 0 127 0" result="hardAlpha"/>
<feMorphology radius="0.697623" operator="dilate" in="SourceAlpha" result="effect2_dropShadow_125_554"/>
<feOffset/>
<feComposite in2="hardAlpha" operator="out"/>
<feColorMatrix type="matrix" values="0 0 0 0 1 0 0 0 0 1 0 0 0 0 1 0 0 0 0.1 0"/>
<feBlend mode="normal" in2="effect1_backgroundBlur_125_554" result="effect2_dropShadow_125_554"/>
<feColorMatrix in="SourceAlpha" type="matrix" values="0 0 0 0 0 0 0 0 0 0 0 0 0 0 0 0 0 0 127 0" result="hardAlpha"/>
<feMorphology radius="1.39525" operator="dilate" in="SourceAlpha" result="effect3_dropShadow_125_554"/>
<feOffset/>
<feComposite in2="hardAlpha" operator="out"/>
<feColorMatrix type="matrix" values="0 0 0 0 0 0 0 0 0 0 0 0 0 0 0 0 0 0 0.05 0"/>
<feBlend mode="normal" in2="effect2_dropShadow_125_554" result="effect3_dropShadow_125_554"/>
<feBlend mode="normal" in="SourceGraphic" in2="effect3_dropShadow_125_554" result="shape"/>
<feColorMatrix in="SourceAlpha" type="matrix" values="0 0 0 0 0 0 0 0 0 0 0 0 0 0 0 0 0 0 127 0" result="hardAlpha"/>
<feOffset dy="0.348812"/>
<feComposite in2="hardAlpha" operator="arithmetic" k2="-1" k3="1"/>
<feColorMatrix type="matrix" values="0 0 0 0 1 0 0 0 0 1 0 0 0 0 1 0 0 0 0.5 0"/>
<feBlend mode="normal" in2="shape" result="effect4_innerShadow_125_554"/>
</filter>
<linearGradient id="paint0_linear_125_554" x1="698.654" y1="344.243" x2="706.176" y2="353.567" gradientUnits="userSpaceOnUse">
<stop stop-color="white"/>
<stop offset="1" stop-color="white" stop-opacity="0"/>
</linearGradient>
<linearGradient id="paint1_linear_125_554" x1="701.197" y1="331" x2="701.154" y2="342.204" gradientUnits="userSpaceOnUse">
<stop stop-color="white"/>
<stop offset="1" stop-color="white" stop-opacity="0"/>
</linearGradient>
<clipPath id="clip0_125_554">
<rect width="21.7288" height="19.3522" fill="white" transform="translate(309.459 539.648)"/>
</clipPath>
<clipPath id="clip1_125_554">
<rect width="28.6753" height="28.6753" fill="white" transform="translate(737.987 416.987)"/>
</clipPath>
</defs>
</svg>
