<svg width="70" height="71" viewBox="0 0 70 71" fill="none" xmlns="http://www.w3.org/2000/svg">
<g clip-path="url(#clip0_65_9628)">
<path d="M50.2707 8.12632L38.3988 14.9887C37.0463 15.7705 36.2133 17.2142 36.2133 18.7764V32.4017C36.2133 33.955 37.0368 35.3917 38.3771 36.1767L50.249 43.1306C51.6146 43.9306 53.3058 43.9306 54.6714 43.1306L66.5432 36.1767C67.8836 35.3917 68.7071 33.955 68.7071 32.4017V18.7764C68.7071 17.2142 67.8743 15.7705 66.5213 14.9887L54.6496 8.12632C53.295 7.34331 51.6253 7.34331 50.2707 8.12632Z" fill="#263CB5" stroke="white" stroke-width="0.546875"/>
<path d="M36.5192 16.759L52.4604 25.7371L68.2845 16.4186" stroke="white" stroke-opacity="0.3" stroke-width="0.410156" stroke-linecap="round" stroke-linejoin="bevel"/>
<path d="M52.4603 25.7215V43.7595" stroke="white" stroke-opacity="0.3" stroke-width="0.410156" stroke-linecap="round"/>
<path d="M15.6981 28.1055L3.82618 34.9679C2.47365 35.7497 1.64062 37.1934 1.64062 38.7556V52.3809C1.64062 53.9341 2.46416 55.3707 3.80441 56.156L15.6763 63.1101C17.0419 63.9096 18.7331 63.9096 20.0987 63.1101L31.9706 56.156C33.3109 55.3707 34.1345 53.9341 34.1345 52.3809V38.7556C34.1345 37.1934 33.3014 35.7497 31.9489 34.9679L20.077 28.1055C18.7224 27.3225 17.0527 27.3225 15.6981 28.1055Z" fill="white" fill-opacity="0.1" stroke="white" stroke-width="0.546875"/>
<path d="M2.2041 36.6069L17.8875 45.7164L33.571 36.6069" stroke="white" stroke-opacity="0.4" stroke-width="0.410156" stroke-linecap="round" stroke-linejoin="bevel"/>
<path d="M17.8875 45.7165V63.6537" stroke="white" stroke-opacity="0.4" stroke-width="0.410156" stroke-linecap="round"/>
<path d="M44.3839 31.2309C44.8779 31.5162 45.2784 31.285 45.2784 30.7145C45.2783 30.144 44.8778 29.4503 44.3838 29.1651C43.8898 28.8798 43.4893 29.111 43.4893 29.6815C43.4893 30.252 43.8898 30.9457 44.3839 31.2309Z" fill="white"/>
<path d="M44.3837 30.1982L33.7258 36.4002" stroke="white" stroke-width="0.410156"/>
</g>
<defs>
<clipPath id="clip0_65_9628">
<rect width="70" height="70" fill="white" transform="translate(0 0.600098)"/>
</clipPath>
</defs>
</svg>
