<svg width="70" height="70" viewBox="0 0 70 70" fill="none" xmlns="http://www.w3.org/2000/svg">
<path d="M35 22.5C38.4518 22.5 41.25 19.7018 41.25 16.25C41.25 12.7982 38.4518 10 35 10C31.5482 10 28.75 12.7982 28.75 16.25C28.75 19.7018 31.5482 22.5 35 22.5Z" fill="#263CB5" stroke="white" stroke-linecap="round" stroke-linejoin="round"/>
<path d="M30.5 20.7501L20.75 30.5001" stroke="white" stroke-linecap="round" stroke-linejoin="round"/>
<path d="M16.25 41.25C19.7018 41.25 22.5 38.4518 22.5 35C22.5 31.5482 19.7018 28.75 16.25 28.75C12.7982 28.75 10 31.5482 10 35C10 38.4518 12.7982 41.25 16.25 41.25Z" fill="#263CB5" stroke="white" stroke-linecap="round" stroke-linejoin="round"/>
<path d="M22.5 35H47.5" stroke="white" stroke-linecap="round" stroke-linejoin="round"/>
<path d="M53.75 41.25C57.2018 41.25 60 38.4518 60 35C60 31.5482 57.2018 28.75 53.75 28.75C50.2982 28.75 47.5 31.5482 47.5 35C47.5 38.4518 50.2982 41.25 53.75 41.25Z" fill="#263CB5" stroke="white" stroke-linecap="round" stroke-linejoin="round"/>
<path d="M39.5 49.2501L49.25 39.5001" stroke="white" stroke-linecap="round" stroke-linejoin="round"/>
<path d="M35 60C38.4518 60 41.25 57.2018 41.25 53.75C41.25 50.2982 38.4518 47.5 35 47.5C31.5482 47.5 28.75 50.2982 28.75 53.75C28.75 57.2018 31.5482 60 35 60Z" fill="#263CB5" stroke="white" stroke-linecap="round" stroke-linejoin="round"/>
</svg>
